Land_normalized_Motion_pl10
version=1
nRows=25
nColumns=43
inDegrees=yes
endheader
time		pelvis_tilt		pelvis_list		pelvis_rotation		pelvis_tx		pelvis_ty		pelvis_tz		hip_flexion_r		hip_adduction_r		hip_rotation_r		knee_angle_r		ankle_angle_r		subtalar_angle_r		mtp_angle_r		hip_flexion_l		hip_adduction_l		hip_rotation_l		knee_angle_l		ankle_angle_l		subtalar_angle_l		mtp_angle_l		lumbar_extension		lumbar_bending		lumbar_rotation		neck_flexion		neck_lateral_bending		neck_rotation		arm_flex_r		arm_add_r		arm_rot_r		elbow_flex_r		pro_sup_r		wrist_flex_r		wrist_dev_r		hand_finger_flex_r		arm_flex_l		arm_add_l		arm_rot_l		elbow_flex_l		pro_sup_l		wrist_flex_l		wrist_dev_l		hand_finger_flex_l		
0.689167		2.204273		6.956958		85.054808		0.003913		0.651109		0.526336		66.594157		0.689527		-4.690263		-100.204771		20.561429		-8.343618		1.691144		67.317860		-6.126843		2.682990		-99.760728		16.649775		5.364337		12.114821		-53.928501		1.984830		9.382038		20.760255		-3.429935		-5.798368		6.271943		-18.598006		-28.802316		56.865969		97.020953		5.581630		-20.232035		6.608232		-3.825996		-20.086669		-5.866353		61.143410		128.718192		-42.138647		-14.423022		-10.185100		
0.692096		2.292920		7.424897		85.155229		0.003687		0.644981		0.524134		67.045545		0.689574		-4.542654		-101.735167		20.570357		-8.083916		1.931032		67.884450		-6.012803		2.949442		-101.359367		16.481973		5.480533		12.474068		-55.049573		2.048697		9.396883		21.646556		-3.450114		-5.775572		8.454111		-19.047783		-27.824362		57.814053		97.362585		5.802820		-20.129838		6.820708		-1.536852		-20.467802		-5.194814		61.610907		129.006258		-42.219979		-14.517666		-10.080336		
0.695025		2.353535		7.804827		85.265662		0.003304		0.638765		0.522003		67.618077		0.630691		-4.382601		-103.251032		20.437006		-7.788640		2.144374		68.543350		-5.864423		3.238634		-102.909895		16.227484		5.786185		12.782133		-56.060632		2.122218		9.404345		22.509901		-3.485025		-5.759953		10.614307		-19.583328		-26.740416		58.761209		97.676457		6.075588		-20.061980		7.003352		0.760476		-20.800905		-4.570150		62.060054		129.329881		-42.159000		-14.672741		-9.960129		
0.697955		2.539068		8.230191		85.467799		0.002792		0.632720		0.519883		68.093382		0.499863		-4.358804		-104.695185		19.864526		-7.373385		5.743807		69.190199		-5.678770		3.751477		-104.387060		15.267971		6.195371		18.085465		-57.108678		2.372039		9.519099		23.290357		-3.613049		-5.733764		12.701591		-20.111170		-25.627868		59.826475		97.547204		5.671472		-19.858530		8.095944		3.254093		-21.210100		-3.317881		62.354561		130.286909		-43.885077		-13.653402		-8.375253		
0.700884		2.526958		8.441253		85.661126		0.002297		0.626208		0.517794		68.873863		0.307964		-4.171083		-106.200140		19.729982		-6.895283		5.895570		70.018906		-5.417809		4.052286		-105.837854		15.044551		6.743183		18.288611		-57.863893		2.469098		9.395835		23.995570		-3.563479		-5.637858		14.911027		-20.589241		-24.451346		60.685253		97.795301		5.925442		-19.758385		8.213450		5.491585		-21.525374		-2.817565		62.785149		130.581776		-43.685705		-13.984601		-8.271927		
0.703813		2.509017		8.590926		85.865986		0.001798		0.619581		0.515707		69.727036		0.097289		-3.962860		-107.692399		19.586527		-6.268322		6.148812		70.910797		-5.134965		4.398853		-107.250280		14.797049		7.423840		18.619025		-58.518982		2.586088		9.243904		24.633790		-3.557121		-5.491731		17.158177		-21.025266		-23.232851		61.489272		97.975347		6.117814		-19.602417		8.313604		7.705923		-21.866336		-2.253707		63.190042		130.890015		-43.624873		-14.235787		-8.195786		
0.706742		2.433172		8.621797		86.018049		0.001480		0.612652		0.513603		70.739064		-0.074269		-3.662996		-109.184776		19.469236		-5.514344		6.806854		71.911941		-4.899834		4.702221		-108.625233		14.612071		8.240056		19.456653		-58.985020		2.608657		9.056796		25.159501		-3.486853		-5.318878		19.441448		-21.424671		-21.876838		62.165548		97.862216		6.128668		-19.279417		8.384725		9.903494		-22.339054		-1.450632		63.581408		131.289306		-43.883373		-14.153221		-8.119617		
0.709672		2.380168		8.773542		86.088886		0.001390		0.606242		0.511579		71.585025		-0.126091		-3.378550		-110.585165		19.214306		-5.055830		7.160256		72.714344		-4.761991		4.955482		-109.919152		14.394965		8.747359		19.922986		-59.591827		2.561429		8.960655		25.704133		-3.409615		-5.245179		21.711667		-21.827720		-20.586560		62.860087		97.957823		6.293365		-19.046929		8.485652		12.176267		-22.784353		-0.711525		63.954259		131.683974		-43.769557		-14.250293		-7.988839		
0.712601		2.295956		8.967201		86.103198		0.001404		0.600079		0.509569		72.386513		-0.137694		-3.052455		-111.953038		18.891585		-4.652482		7.445702		73.413570		-4.676153		5.158236		-111.151227		14.195172		9.249135		20.295645		-60.222200		2.441686		8.862382		26.205803		-3.335818		-5.180866		24.027187		-22.205371		-19.285180		63.480368		98.128929		6.487054		-18.784652		8.572190		14.459686		-23.243364		0.032939		64.314036		132.102247		-43.534827		-14.364157		-7.826485		
0.715530		1.988073		9.148543		86.086458		0.001390		0.593737		0.507481		73.302422		-0.227172		-2.423743		-113.381337		18.274256		-3.872174		10.455314		74.080011		-4.572398		5.163527		-112.297151		13.672026		10.007702		23.834600		-60.741370		2.140422		8.496086		26.526295		-3.185409		-4.935820		26.368115		-22.661020		-17.337908		64.008149		97.027863		5.941583		-18.149109		8.679146		16.691515		-23.855263		1.112383		64.749940		133.185069		-44.464877		-13.099729		-6.980172		
0.718460		1.847140		9.340193		86.035483		0.001625		0.587728		0.505432		74.115274		-0.187538		-2.048137		-114.710180		17.991001		-3.466450		10.608942		74.689032		-4.602148		5.306683		-113.446651		13.695791		10.758249		24.062938		-61.302399		1.916707		8.312716		26.882640		-3.043095		-4.852935		28.752631		-22.890599		-16.018664		64.499271		97.472911		6.196794		-17.848812		8.767510		18.899588		-24.369409		1.789393		65.107776		133.526892		-44.105854		-13.361581		-6.798235		
0.721389		1.539489		9.532926		85.927201		0.001921		0.581721		0.503366		74.986837		-0.151646		-1.457357		-116.062240		17.673400		-2.819624		11.068976		75.235163		-4.686569		5.285620		-114.543261		13.788468		11.917340		24.601343		-61.801684		1.542190		7.911179		27.118861		-2.885951		-4.608872		31.248845		-22.994830		-14.511057		64.832123		97.838254		6.308846		-17.520253		8.671119		21.023040		-24.963808		2.491456		65.499137		133.778776		-44.013237		-13.211755		-6.552239		
0.724318		1.363040		9.688997		85.884528		0.002222		0.575978		0.501400		75.795082		-0.145574		-1.106791		-117.299683		17.442558		-2.459335		11.385235		75.809458		-4.756467		5.346393		-115.581523		13.867063		12.491855		24.952947		-62.315617		1.284684		7.660423		27.574407		-2.705736		-4.510108		33.673799		-23.102667		-13.163445		65.197071		98.143701		6.479077		-17.304487		8.598353		23.246372		-25.527556		3.228556		65.856886		134.112850		-43.730938		-13.224953		-6.296501		
0.727247		0.967937		9.800704		85.792686		0.002542		0.569944		0.499389		76.761775		-0.156912		-0.496117		-118.598160		17.106868		-1.919348		11.963981		76.393571		-4.865260		5.205954		-116.598018		14.019472		13.650686		25.506606		-62.671811		0.859867		7.171328		27.715858		-2.524123		-4.265268		36.152995		-23.127131		-11.584543		65.380386		98.406527		6.526971		-17.156939		8.244715		25.384245		-26.157702		4.013174		66.226364		134.331799		-43.648973		-12.779523		-5.889695		
0.730177		0.717787		9.892861		85.770179		0.002666		0.563956		0.497391		77.665939		-0.214353		-0.095395		-119.818155		16.785883		-1.586640		12.394375		77.053554		-4.944062		5.157800		-117.638216		14.094049		14.420758		25.860548		-63.019082		0.600028		6.862279		27.900091		-2.351888		-4.101198		38.506305		-23.297127		-10.074890		65.682791		98.760255		6.720289		-17.033866		8.024325		27.582889		-26.694078		4.804059		66.540194		134.617684		-43.381341		-12.627927		-5.460917		
0.733106		0.390001		9.845827		85.754745		0.003000		0.557947		0.495514		78.689653		-0.291888		0.319763		-120.974060		16.611500		-1.217042		13.031576		77.801625		-5.040218		5.059579		-118.572185		14.342246		15.496979		26.261535		-63.217371		0.269107		6.436378		28.188589		-2.162479		-3.915584		40.905342		-23.188897		-8.695280		65.788860		99.009180		6.698056		-17.028825		7.569296		29.784993		-27.248850		5.589275		66.814224		134.752929		-43.261308		-12.241388		-4.879784		
0.736035		0.172752		9.806345		85.776238		0.003217		0.552049		0.493649		79.622243		-0.382567		0.586212		-122.057938		16.498786		-0.981225		13.379755		78.572020		-5.136366		5.018530		-119.529843		14.575854		16.390225		26.387638		-63.426631		0.062534		6.141865		28.452704		-2.011095		-3.778342		43.209261		-23.162445		-7.364280		65.994770		99.290988		6.734402		-16.961562		7.319486		32.018466		-27.723792		6.349330		67.011977		134.871904		-42.963419		-12.138303		-4.442892		
0.738965		-0.081537		9.723329		85.792514		0.003416		0.546085		0.491789		80.585992		-0.484765		0.889192		-123.123664		16.433890		-0.725127		13.800521		79.376065		-5.236262		4.935791		-120.466066		14.870386		17.484877		26.494327		-63.554524		-0.158260		5.805233		28.650451		-1.865803		-3.606250		45.494926		-23.082872		-5.994982		66.129067		99.525422		6.674514		-16.932218		6.977114		34.218691		-28.183771		7.125694		67.175942		134.887498		-42.740473		-11.920215		-3.951134		
0.741894		-0.339388		9.626149		85.812220		0.003656		0.540077		0.489930		81.545305		-0.584913		1.176182		-124.172585		16.428278		-0.451614		14.275595		80.183270		-5.344493		4.878578		-121.387216		15.239015		18.841067		26.422290		-63.629166		-0.373158		5.460067		28.724428		-1.744760		-3.405004		47.738467		-23.040910		-4.464758		66.209600		99.564904		6.400567		-16.931424		6.459547		36.417906		-28.656126		8.005110		67.296773		134.687875		-42.662437		-11.610171		-3.400022		
0.744823		-0.473630		9.557223		85.839729		0.003970		0.534590		0.488211		82.327040		-0.648083		1.294622		-125.081778		16.538738		-0.353475		14.530870		80.931179		-5.458631		4.848650		-122.257356		15.521613		19.512404		26.374540		-63.811904		-0.508920		5.260001		29.021456		-1.634429		-3.309305		49.964636		-22.994141		-3.143795		66.368149		99.736963		6.400116		-16.782957		6.239032		38.628137		-29.029303		8.701321		67.394604		134.739935		-42.375391		-11.613725		-3.040363		
0.747753		-0.680487		9.513770		85.798780		0.004116		0.528695		0.486278		83.165440		-0.678338		1.545285		-126.100815		16.648510		-0.112574		15.028581		81.638575		-5.603976		4.826592		-123.184822		15.904204		20.811674		26.095955		-63.875146		-0.701836		4.957398		28.894778		-1.580535		-3.101560		52.166616		-23.075515		-1.278893		66.401249		99.332947		5.870276		-16.680165		5.406142		40.788727		-29.462005		9.698826		67.389954		134.272989		-42.560882		-11.164199		-2.501519		
0.750682		-0.767501		9.492714		85.746877		0.004347		0.523277		0.484465		83.845115		-0.660587		1.619488		-126.988822		16.863608		-0.087729		15.295029		82.289063		-5.754021		4.833942		-124.074923		16.113623		21.109103		25.955654		-64.050809		-0.840645		4.815757		29.046267		-1.519593		-3.037630		54.344101		-23.202245		0.355128		66.571115		99.133076		5.785919		-16.425838		4.953207		42.939015		-29.809939		10.486740		67.400942		134.195558		-42.498368		-11.099997		-2.153028		
0.753611		-0.879040		9.446955		85.661385		0.004613		0.517938		0.482723		84.538363		-0.594952		1.740660		-127.835652		17.081713		-0.019387		15.618796		82.922050		-5.937038		4.850370		-124.928112		16.294889		21.390260		25.806058		-64.175527		-1.015511		4.674730		29.117928		-1.488372		-2.968201		56.557474		-23.355648		2.178859		66.625871		98.537311		5.451684		-16.153152		4.161036		45.115969		-30.089281		11.369697		67.316121		133.898416		-42.686766		-10.797851		-1.777111		
0.756540		-0.973982		9.386621		85.539590		0.004865		0.512636		0.480998		85.231454		-0.483330		1.834537		-128.654749		17.330161		-0.020042		15.812034		83.555316		-6.142641		4.848926		-125.783939		16.338063		21.191578		25.911611		-64.283350		-1.204345		4.590122		29.211302		-1.491540		-2.952476		58.748464		-23.563200		3.973931		66.712760		97.983088		5.288556		-15.861479		3.479868		47.273262		-30.305348		12.202192		67.196641		133.737974		-42.823008		-10.554865		-1.506564		
0.759470		-1.065980		9.277495		85.452526		0.005062		0.507513		0.479365		85.914581		-0.393690		1.901836		-129.412494		17.615532		-0.053951		15.934723		84.213968		-6.330671		4.869462		-126.589400		16.394692		21.037777		26.037207		-64.379341		-1.373462		4.497157		29.509262		-1.426058		-2.971319		60.916858		-23.607300		5.422946		66.772954		97.770502		5.295977		-15.571219		3.101292		49.387773		-30.426677		12.821791		67.092340		133.720725		-42.738436		-10.458146		-1.304223		
